<svg width="14" height="14" viewBox="0 0 14 14" fill="none" xmlns="http://www.w3.org/2000/svg">
<path d="M6.99805 10.0977C6.48698 10.0977 6.04427 9.99837 5.66992 9.7998C5.29557 9.60124 5.00749 9.29688 4.80566 8.88672C4.60384 8.47656 4.50293 7.95573 4.50293 7.32422C4.50293 6.66667 4.61361 6.12956 4.83496 5.71289C5.05632 5.29622 5.3623 4.98861 5.75293 4.79004C6.14681 4.59147 6.59766 4.49219 7.10547 4.49219C7.42773 4.49219 7.71908 4.52474 7.97949 4.58984C8.24316 4.65169 8.46615 4.72819 8.64844 4.81934L8.30664 5.7373C8.10807 5.65592 7.90462 5.58757 7.69629 5.53223C7.48796 5.47689 7.28776 5.44922 7.0957 5.44922C6.77995 5.44922 6.51628 5.51921 6.30469 5.65918C6.09635 5.79915 5.9401 6.00749 5.83594 6.28418C5.73503 6.56087 5.68457 6.9043 5.68457 7.31445C5.68457 7.71159 5.73665 8.04688 5.84082 8.32031C5.94499 8.59049 6.09961 8.79557 6.30469 8.93555C6.50977 9.07227 6.76204 9.14062 7.06152 9.14062C7.35775 9.14062 7.62305 9.10482 7.85742 9.0332C8.0918 8.96159 8.31315 8.86881 8.52148 8.75488V9.75098C8.31641 9.86816 8.09668 9.95443 7.8623 10.0098C7.62793 10.0684 7.33984 10.0977 6.99805 10.0977Z" fill="#1E2940"/>
<circle cx="7" cy="7" r="6.5" stroke="#1E2940"/>
</svg>
