<svg width="149" height="132" viewBox="0 0 149 132" fill="none" xmlns="http://www.w3.org/2000/svg">
<path d="M87.647 57.1179V43.7085H91.5578C94.4151 43.7085 95.9569 45.5405 95.9569 47.8635C95.9569 50.2432 94.4151 52.0374 91.5578 52.0374H88.1922V57.1179H87.647ZM88.1922 51.4897H91.5202C93.9454 51.4897 95.374 50.111 95.374 47.8635C95.374 45.5783 93.9454 44.2562 91.5202 44.2562H88.1922V51.4897ZM106.026 57.1179L102.473 51.9997C102.322 52.0186 102.19 52.0186 102.04 52.0186H98.7125V57.1179H98.1673V43.7085H102.04C104.841 43.7085 106.382 45.5405 106.382 47.8635C106.382 49.9221 105.217 51.5274 103.093 51.9241L106.702 57.1179H106.026ZM98.7125 51.4519H101.946C104.353 51.4519 105.8 50.111 105.8 47.8635C105.8 45.5783 104.353 44.2562 101.946 44.2562H98.7125V51.4519ZM108.724 57.1179V43.7085H109.269V57.1179H108.724ZM116.638 57.1179L111.186 43.7085H111.769L116.845 56.268L121.921 43.7085H122.504L117.052 57.1179H116.638ZM126.514 43.7085H126.927L132.379 57.1179H131.797L130.236 53.265H123.205L121.644 57.1179H121.062L126.514 43.7085ZM123.431 52.7174H130.01L126.72 44.5584L123.431 52.7174ZM135.572 57.1179V44.2562H131.68V43.7085H140.008V44.2562H136.117V57.1179H135.572ZM142.119 57.1179V43.7085H148.831V44.2562H142.664V50.111H147.966V50.6587H142.664V56.5702H149V57.1179H142.119ZM87.647 74.1157V60.7062H88.1922V74.1157H87.647ZM90.7681 74.1157V60.7062H91.351L100.318 73.1336H100.413V60.7062H100.958V74.1157H100.375L91.4071 61.6884H91.3133V74.1157H90.7681ZM108.341 74.1157L102.888 60.7062H103.471L108.547 73.2657L113.623 60.7062H114.206L108.754 74.1157H108.341ZM116.14 74.1157V60.7062H122.852V61.254H116.686V67.1088H121.987V67.6565H116.686V73.5679H123.021V74.1157H116.14ZM129.08 74.3045C126.88 74.3045 125.264 73.0203 124.851 71.0939L125.339 70.8861C125.715 72.6803 127.238 73.719 129.099 73.719C130.923 73.719 132.464 72.6992 132.464 70.7917C132.464 68.9219 131.054 68.1476 129.268 67.4299L128.347 67.071C126.242 66.24 125.414 65.0502 125.414 63.6526C125.414 61.7828 126.9 60.5174 128.93 60.5174C131.036 60.5174 132.22 61.8017 132.652 63.2559L132.182 63.4449C131.693 62.085 130.678 61.084 128.93 61.084C127.276 61.084 125.997 62.0661 125.997 63.6337C125.997 64.8802 126.731 65.8245 128.46 66.5045L129.363 66.8633C131.374 67.6754 133.01 68.563 133.01 70.7728C133.01 73.0014 131.279 74.3045 129.08 74.3045ZM137.977 74.1157V61.254H134.085V60.7062H142.413V61.254H138.522V74.1157H137.977Z" fill="#111725"/>
<path d="M75.3765 20.106V101.404" stroke="#111725" stroke-width="0.2"/>
<path d="M11.1504 34.9671L1.11475 4.37109H8.4771L17.198 31.4704H13.5168L22.6321 4.37109H29.2056L37.9703 31.4704H34.4206L43.3606 4.37109H50.1533L40.1177 34.9671H32.4924L24.7356 11.1896H26.7515L18.7756 34.9671H11.1504ZM54.1166 34.9671V4.37109H61.216V34.9671H54.1166ZM18.5973 74.8294C16.2308 74.8294 14.025 74.4506 11.9799 73.6929C9.96405 72.9062 8.21107 71.7989 6.72107 70.3711C5.23107 68.9433 4.06245 67.2678 3.21519 65.3446C2.39715 63.4214 1.98813 61.3088 1.98813 59.0069C1.98813 56.7049 2.39715 54.5923 3.21519 52.6691C4.06245 50.7459 5.23107 49.0704 6.72107 47.6426C8.24029 46.2148 10.0079 45.1221 12.0238 44.3645C14.0396 43.5777 16.2454 43.1843 18.6411 43.1843C21.2997 43.1843 23.6954 43.6505 25.8282 44.583C27.9901 45.4863 29.8015 46.8267 31.2623 48.6042L26.7046 52.8002C25.6529 51.6055 24.4842 50.7168 23.1988 50.134C21.9132 49.5221 20.5109 49.2161 18.9917 49.2161C17.5601 49.2161 16.2454 49.4493 15.0476 49.9155C13.8497 50.3817 12.8126 51.0519 11.9361 51.9261C11.0596 52.8002 10.373 53.8346 9.8764 55.0294C9.40889 56.2241 9.17523 57.5499 9.17523 59.0069C9.17523 60.4638 9.40889 61.7896 9.8764 62.9843C10.373 64.1791 11.0596 65.2135 11.9361 66.0876C12.8126 66.9618 13.8497 67.632 15.0476 68.0982C16.2454 68.5644 17.5601 68.7976 18.9917 68.7976C20.5109 68.7976 21.9132 68.5062 23.1988 67.9234C24.4842 67.3115 25.6529 66.3936 26.7046 65.1698L31.2623 69.3658C29.8015 71.1432 27.9901 72.4982 25.8282 73.4307C23.6954 74.3632 21.2851 74.8294 18.5973 74.8294ZM42.4109 67.3115L42.0165 59.138L56.6974 43.7088H64.5856L51.3509 57.9141L47.4068 62.1102L42.4109 67.3115ZM36.0565 74.3049V43.7088H43.1121V74.3049H36.0565ZM57.048 74.3049L46.1359 60.9737L50.7812 55.9472L65.3306 74.3049H57.048ZM13.399 95.3724H28.1676V100.88H13.399V95.3724ZM13.9249 107.96H30.6217V113.643H6.86932V83.0466H30.052V88.7287H13.9249V107.96ZM36.2704 113.643V83.0466H49.549C52.2953 83.0466 54.6618 83.4983 56.6484 84.4016C58.6351 85.2757 60.1689 86.5433 61.2498 88.2042C62.3309 89.8651 62.8713 91.8469 62.8713 94.1486C62.8713 96.4214 62.3309 98.3883 61.2498 100.049C60.1689 101.681 58.6351 102.934 56.6484 103.808C54.6618 104.682 52.2953 105.119 49.549 105.119H40.2146L43.3698 102.016V113.643H36.2704ZM55.7719 113.643L48.1028 102.541H55.6843L63.441 113.643H55.7719ZM43.3698 102.803L40.2146 99.481H49.1546C51.3457 99.481 52.9818 99.0151 54.0628 98.0823C55.1438 97.1208 55.6843 95.8095 55.6843 94.1486C55.6843 92.4588 55.1438 91.1475 54.0628 90.2148C52.9818 89.2821 51.3457 88.8161 49.1546 88.8161H40.2146L43.3698 85.4506V102.803Z" fill="#111725"/>
</svg>
