<svg width="188" height="166" viewBox="0 0 188 166" fill="none" xmlns="http://www.w3.org/2000/svg">
<path d="M110.588 71.8301V54.9668H115.523C119.128 54.9668 121.073 57.2707 121.073 60.1921C121.073 63.1847 119.128 65.4411 115.523 65.4411H111.276V71.8301H110.588ZM111.276 64.7522H115.475C118.535 64.7522 120.338 63.0185 120.338 60.1921C120.338 57.3182 118.535 55.6555 115.475 55.6555H111.276V64.7522ZM133.777 71.8301L129.294 65.3936C129.104 65.4173 128.938 65.4173 128.748 65.4173H124.55V71.8301H123.862V54.9668H128.748C132.282 54.9668 134.228 57.2707 134.228 60.1921C134.228 62.7809 132.757 64.7997 130.077 65.2985L134.631 71.8301H133.777ZM124.55 64.7047H128.63C131.666 64.7047 133.492 63.0185 133.492 60.1921C133.492 57.3182 131.666 55.6555 128.63 55.6555H124.55V64.7047ZM137.181 71.8301V54.9668H137.869V71.8301H137.181ZM147.167 71.8301L140.289 54.9668H141.024L147.428 70.7613L153.834 54.9668H154.569L147.689 71.8301H147.167ZM159.629 54.9668H160.149L167.029 71.8301H166.294L164.325 66.9849H155.453L153.484 71.8301H152.749L159.629 54.9668ZM155.738 66.2961H164.04L159.888 56.0356L155.738 66.2961ZM171.057 71.8301V55.6555H166.147V54.9668H176.655V55.6555H171.745V71.8301H171.057ZM179.318 71.8301V54.9668H187.787V55.6555H180.006V63.0185H186.695V63.7072H180.006V71.1414H188V71.8301H179.318ZM110.588 93.2062V76.3428H111.276V93.2062H110.588ZM114.526 93.2062V76.3428H115.262L126.576 91.9711H126.695V76.3428H127.383V93.2062H126.648L115.332 77.5779H115.214V93.2062H114.526ZM136.698 93.2062L129.818 76.3428H130.554L136.959 92.1373L143.363 76.3428H144.099L137.22 93.2062H136.698ZM146.539 93.2062V76.3428H155.008V77.0316H147.228V84.3944H153.917V85.0833H147.228V92.5173H155.222V93.2062H146.539ZM162.867 93.4436C160.091 93.4436 158.052 91.8286 157.53 89.406L158.146 89.1447C158.62 91.4011 160.542 92.7073 162.89 92.7073C165.191 92.7073 167.136 91.4248 167.136 89.0259C167.136 86.6746 165.357 85.7008 163.103 84.7982L161.941 84.3469C159.285 83.3019 158.241 81.8056 158.241 80.048C158.241 77.6966 160.115 76.1053 162.676 76.1053C165.334 76.1053 166.828 77.7203 167.373 79.5492L166.78 79.7868C166.163 78.0766 164.883 76.8178 162.676 76.8178C160.59 76.8178 158.976 78.0529 158.976 80.0242C158.976 81.5918 159.902 82.7794 162.084 83.6345L163.223 84.0857C165.761 85.107 167.824 86.2233 167.824 89.0022C167.824 91.8048 165.641 93.4436 162.867 93.4436ZM174.091 93.2062V77.0316H169.181V76.3428H179.689V77.0316H174.779V93.2062H174.091Z" fill="#111725"/>
<path d="M95.1059 25.2847V127.523" stroke="#111725" stroke-width="0.2"/>
<path d="M14.0689 43.9734L1.40656 5.49658H10.696L21.6995 39.576H17.0548L28.556 5.49658H36.8501L47.9089 39.576H43.4301L54.7101 5.49658H63.2807L50.6183 43.9734H40.9972L31.2101 14.0714H33.7536L23.6901 43.9734H14.0689ZM68.2814 43.9734V5.49658H77.239V43.9734H68.2814ZM23.4651 94.1032C20.4792 94.1032 17.696 93.6269 15.1156 92.6741C12.5721 91.6847 10.3603 90.2921 8.48031 88.4966C6.60031 86.701 5.1258 84.5939 4.05678 82.1754C3.02463 79.7568 2.50854 77.1001 2.50854 74.2052C2.50854 71.3103 3.02463 68.6535 4.05678 66.235C5.1258 63.8164 6.60031 61.7093 8.48031 59.9138C10.3972 58.1182 12.6274 56.7441 15.1709 55.7913C17.7145 54.8019 20.4975 54.3072 23.5204 54.3072C26.8748 54.3072 29.8975 54.8935 32.5886 56.0661C35.3164 57.2021 37.6019 58.8878 39.4451 61.1231L33.6945 66.3999C32.3674 64.8974 30.8928 63.7798 29.2709 63.0469C27.6489 62.2774 25.8795 61.8926 23.9627 61.8926C22.1564 61.8926 20.4975 62.1858 18.9862 62.7721C17.4748 63.3584 16.1662 64.2012 15.0604 65.3006C13.9545 66.3999 13.0881 67.7007 12.4615 69.2032C11.8717 70.7057 11.5768 72.3729 11.5768 74.2052C11.5768 76.0375 11.8717 77.7047 12.4615 79.2072C13.0881 80.7096 13.9545 82.0105 15.0604 83.1098C16.1662 84.2092 17.4748 85.052 18.9862 85.6383C20.4975 86.2246 22.1564 86.5178 23.9627 86.5178C25.8795 86.5178 27.6489 86.1514 29.2709 85.4184C30.8928 84.6489 32.3674 83.4946 33.6945 81.9555L39.4451 87.2323C37.6019 89.4676 35.3164 91.1716 32.5886 92.3443C29.8975 93.5169 26.8564 94.1032 23.4651 94.1032ZM53.5118 84.6489L53.0141 74.3701L71.5377 54.9668H81.4906L64.7918 72.831L59.8153 78.1078L53.5118 84.6489ZM45.4941 93.4436V54.9668H54.3965V93.4436H45.4941ZM71.98 93.4436L58.2118 76.6787L64.073 70.3575L82.4306 93.4436H71.98ZM16.9062 119.938H35.5403V126.863H16.9062V119.938ZM17.5697 135.768H38.6368V142.914H8.66736V104.437H37.9179V111.583H17.5697V135.768ZM45.7641 142.914V104.437H62.5182C65.9834 104.437 68.9692 105.005 71.4758 106.141C73.9825 107.24 75.9178 108.834 77.2817 110.923C78.6457 113.012 79.3276 115.504 79.3276 118.399C79.3276 121.257 78.6457 123.73 77.2817 125.819C75.9178 127.872 73.9825 129.447 71.4758 130.546C68.9692 131.646 65.9834 132.195 62.5182 132.195H50.7405L54.7217 128.293V142.914H45.7641ZM70.37 142.914L60.6935 128.952H70.2594L80.0464 142.914H70.37ZM54.7217 129.282L50.7405 125.105H62.0205C64.7853 125.105 66.8496 124.519 68.2135 123.346C69.5775 122.136 70.2594 120.487 70.2594 118.399C70.2594 116.274 69.5775 114.625 68.2135 113.452C66.8496 112.279 64.7853 111.693 62.0205 111.693H50.7405L54.7217 107.46V129.282Z" fill="#111725"/>
</svg>
